<?xml version="1.0" encoding="UTF-8" standalone="no"?>
<svg
   xmlns:dc="http://purl.org/dc/elements/1.1/"
   xmlns:cc="http://creativecommons.org/ns#"
   xmlns:rdf="http://www.w3.org/1999/02/22-rdf-syntax-ns#"
   xmlns:svg="http://www.w3.org/2000/svg"
   xmlns="http://www.w3.org/2000/svg"
   xmlns:xlink="http://www.w3.org/1999/xlink"
   xmlns:sodipodi="http://sodipodi.sourceforge.net/DTD/sodipodi-0.dtd"
   xmlns:inkscape="http://www.inkscape.org/namespaces/inkscape"
   id="svg2408"
   height="1024"
   width="1024"
   version="1.0"
   sodipodi:docname="Imageez.svg"
   inkscape:version="0.92.2 5c3e80d, 2017-08-06">
  <sodipodi:namedview
     pagecolor="#ffffff"
     bordercolor="#666666"
     borderopacity="1"
     objecttolerance="10"
     gridtolerance="10"
     guidetolerance="10"
     inkscape:pageopacity="0"
     inkscape:pageshadow="2"
     inkscape:window-width="759"
     inkscape:window-height="480"
     id="namedview84"
     showgrid="false"
     inkscape:zoom="0.21728802"
     inkscape:cx="583.34828"
     inkscape:cy="372.02037"
     inkscape:window-x="310"
     inkscape:window-y="104"
     inkscape:window-maximized="0"
     inkscape:current-layer="svg2408"
     inkscape:pagecheckerboard="true" />
  <defs
     id="defs2410">
    <linearGradient
       id="linearGradient4384">
      <stop
         offset="0"
         style="stop-color:#ffffff;stop-opacity:1"
         id="stop4386" />
      <stop
         offset="1"
         style="stop-color:#ffffff;stop-opacity:0"
         id="stop4388" />
    </linearGradient>
    <linearGradient
       id="linearGradient4367">
      <stop
         offset="0"
         style="stop-color:#ffffff;stop-opacity:0.71755725"
         id="stop4369" />
      <stop
         offset="1"
         style="stop-color:#ffffff;stop-opacity:1"
         id="stop4371" />
    </linearGradient>
    <linearGradient
       gradientTransform="scale(1.0058652,0.994169)"
       gradientUnits="userSpaceOnUse"
       id="ButtonShadow"
       y2="7.0165396"
       x2="45.447727"
       y1="92.539597"
       x1="45.447727">
      <stop
         offset="0"
         style="stop-color:#000000;stop-opacity:1"
         id="stop3750" />
      <stop
         offset="1"
         style="stop-color:#000000;stop-opacity:0.58823532"
         id="stop3752" />
    </linearGradient>
    <linearGradient
       id="linearGradient3737">
      <stop
         offset="0"
         style="stop-color:#ffffff;stop-opacity:1"
         id="stop3739" />
      <stop
         offset="1"
         style="stop-color:#ffffff;stop-opacity:0"
         id="stop3741" />
    </linearGradient>
    <filter
       id="filter3174"
       style="color-interpolation-filters:sRGB">
      <feGaussianBlur
         stdDeviation="1.71"
         id="feGaussianBlur3176" />
    </filter>
    <filter
       id="filter3794"
       height="1.3839999"
       width="1.3839999"
       y="-0.192"
       x="-0.192"
       style="color-interpolation-filters:sRGB">
      <feGaussianBlur
         stdDeviation="5.28"
         id="feGaussianBlur3796" />
    </filter>
    <linearGradient
       gradientUnits="userSpaceOnUse"
       xlink:href="#linearGradient3737"
       id="linearGradient3613"
       y2="138.66119"
       x2="48"
       y1="20.220806"
       x1="48" />
    <linearGradient
       gradientUnits="userSpaceOnUse"
       xlink:href="#linearGradient4068"
       id="linearGradient3617"
       y2="5.9877172"
       x2="48"
       y1="90"
       x1="48" />
    <linearGradient
       gradientTransform="matrix(1.0058652,0,0,0.994169,100,0)"
       gradientUnits="userSpaceOnUse"
       id="ButtonShadow-0"
       y2="7.0165396"
       x2="45.447727"
       y1="92.539597"
       x1="45.447727">
      <stop
         offset="0"
         style="stop-color:#000000;stop-opacity:1"
         id="stop3750-8" />
      <stop
         offset="1"
         style="stop-color:#000000;stop-opacity:0.58823532"
         id="stop3752-5" />
    </linearGradient>
    <linearGradient
       gradientTransform="matrix(1.0238095,0,0,1.0119048,-1.1428571,-98.071429)"
       gradientUnits="userSpaceOnUse"
       xlink:href="#ButtonShadow-0"
       id="linearGradient3780"
       y2="90.238609"
       x2="32.251034"
       y1="6.1317081"
       x1="32.251034" />
    <linearGradient
       gradientTransform="matrix(1.0238095,0,0,1.0119048,-1.1428571,-98.071429)"
       gradientUnits="userSpaceOnUse"
       xlink:href="#ButtonShadow-0"
       id="linearGradient3772"
       y2="90.238609"
       x2="32.251034"
       y1="6.1317081"
       x1="32.251034" />
    <linearGradient
       gradientTransform="matrix(1.0238095,0,0,1.0119048,-1.1428571,-98.071429)"
       gradientUnits="userSpaceOnUse"
       xlink:href="#ButtonShadow-0"
       id="linearGradient3725"
       y2="90.238609"
       x2="32.251034"
       y1="6.1317081"
       x1="32.251034" />
    <linearGradient
       gradientTransform="translate(0,-97)"
       gradientUnits="userSpaceOnUse"
       xlink:href="#ButtonShadow-0"
       id="linearGradient3721"
       y2="90.238609"
       x2="32.251034"
       y1="6.1317081"
       x1="32.251034" />
    <linearGradient
       gradientTransform="matrix(1.0238095,0,0,1.0119048,-1.1428571,-98.071429)"
       gradientUnits="userSpaceOnUse"
       xlink:href="#ButtonShadow-0"
       id="linearGradient3026"
       y2="90.238609"
       x2="32.251034"
       y1="6.1317081"
       x1="32.251034" />
    <clipPath
       id="clipPath4355">
      <rect
         style="fill:#ffffff;fill-opacity:1;fill-rule:nonzero;stroke:none"
         id="rect4357"
         y="6"
         x="6"
         ry="6"
         rx="6"
         height="80"
         width="84" />
    </clipPath>
    <radialGradient
       gradientTransform="matrix(1,-6.7114942e-8,8.4282233e-8,1.2557894,109.99999,-24.505592)"
       gradientUnits="userSpaceOnUse"
       xlink:href="#linearGradient4367"
       id="radialGradient4375"
       fy="87.792389"
       fx="48"
       r="42"
       cy="87.792389"
       cx="48" />
    <linearGradient
       gradientTransform="matrix(1,0,0,-1,0,92)"
       gradientUnits="userSpaceOnUse"
       xlink:href="#linearGradient4384"
       id="linearGradient4390"
       y2="-40"
       x2="48"
       y1="88"
       x1="48" />
    <linearGradient
       spreadMethod="reflect"
       gradientUnits="userSpaceOnUse"
       xlink:href="#linearGradient4384"
       id="linearGradient4429"
       y2="82.454597"
       x2="112.12357"
       y1="82"
       x1="48" />
    <linearGradient
       id="linearGradient3843">
      <stop
         offset="0"
         style="stop-color:#523823;stop-opacity:1"
         id="stop3845" />
      <stop
         offset="0.11780351"
         style="stop-color:#79563a;stop-opacity:1"
         id="stop3847" />
      <stop
         offset="0.23809524"
         style="stop-color:#875c38;stop-opacity:1"
         id="stop3849" />
      <stop
         offset="1"
         style="stop-color:#a66e40;stop-opacity:1"
         id="stop3851" />
    </linearGradient>
    <linearGradient
       spreadMethod="reflect"
       gradientTransform="translate(-2,-956.3622)"
       gradientUnits="userSpaceOnUse"
       xlink:href="#linearGradient3843"
       id="linearGradient3870"
       y2="1033.3622"
       x2="50"
       y1="1033.3622"
       x1="8" />
    <linearGradient
       id="linearGradient4068">
      <stop
         offset="0"
         style="stop-color:#45a4d4;stop-opacity:1"
         id="stop4070" />
      <stop
         offset="1"
         style="stop-color:#94c8e0;stop-opacity:1"
         id="stop4072" />
    </linearGradient>
    <radialGradient
       gradientTransform="matrix(-0.14010564,0,0,0.13702439,96.633969,18.542549)"
       gradientUnits="userSpaceOnUse"
       xlink:href="#linearGradient6793-3"
       id="radialGradient4075-0"
       fy="241.04938"
       fx="353.6283"
       r="220.11942"
       cy="241.04938"
       cx="353.6283" />
    <linearGradient
       id="linearGradient6793-3">
      <stop
         offset="0"
         style="stop-color:#44b5e8;stop-opacity:1"
         id="stop6795-4" />
      <stop
         offset="1"
         style="stop-color:#116b98;stop-opacity:1"
         id="stop6797-6" />
    </linearGradient>
    <radialGradient
       gradientTransform="matrix(-0.14010564,0,0,0.13702439,96.633969,18.542549)"
       gradientUnits="userSpaceOnUse"
       xlink:href="#linearGradient6793-3"
       id="radialGradient4078-3"
       fy="241.04938"
       fx="353.6283"
       r="220.11942"
       cy="241.04938"
       cx="353.6283" />
    <radialGradient
       gradientTransform="matrix(-0.14010564,0,0,0.13702439,96.633969,18.542549)"
       gradientUnits="userSpaceOnUse"
       xlink:href="#linearGradient6793-3"
       id="radialGradient4081-6"
       fy="241.04938"
       fx="353.6283"
       r="220.11942"
       cy="241.04938"
       cx="353.6283" />
    <radialGradient
       gradientTransform="matrix(-0.13999019,-0.00562986,-0.00561708,0.1369115,97.441273,18.740641)"
       gradientUnits="userSpaceOnUse"
       xlink:href="#linearGradient6793-3"
       id="radialGradient4086-3"
       fy="241.04938"
       fx="353.6283"
       r="220.11942"
       cy="241.04938"
       cx="353.6283" />
    <radialGradient
       gradientTransform="matrix(-0.14010564,0,0,0.13702439,96.633969,18.542549)"
       gradientUnits="userSpaceOnUse"
       xlink:href="#linearGradient6793-3"
       id="radialGradient3952"
       fy="241.04938"
       fx="353.6283"
       r="220.11942"
       cy="241.04938"
       cx="353.6283" />
    <filter
       id="filter1515"
       style="color-interpolation-filters:sRGB">
      <feComposite
         id="feComposite1501"
         result="composite1"
         k2="1"
         k1="0"
         operator="arithmetic"
         in2="SourceGraphic"
         k3="0"
         k4="0" />
      <feColorMatrix
         id="feColorMatrix1503"
         result="colormatrix1"
         type="saturate"
         values="1"
         in="composite1" />
      <feFlood
         id="feFlood1505"
         result="flood1"
         flood-color="rgb(204,90,32)"
         flood-opacity="1" />
      <feBlend
         id="feBlend1507"
         result="blend1"
         mode="normal"
         in2="colormatrix1"
         in="flood1" />
      <feBlend
         id="feBlend1509"
         result="blend2"
         mode="screen"
         in2="blend1" />
      <feColorMatrix
         id="feColorMatrix1511"
         result="colormatrix2"
         type="saturate"
         values="1"
         in="blend2" />
      <feComposite
         id="feComposite1513"
         result="fbSourceGraphic"
         operator="in"
         in2="SourceGraphic"
         in="colormatrix2" />
      <feColorMatrix
         id="feColorMatrix1517"
         values="0 0 0 -1 0 0 0 0 -1 0 0 0 0 -1 0 0 0 0 1 0"
         in="fbSourceGraphic"
         result="fbSourceGraphicAlpha" />
      <feComposite
         in="fbSourceGraphic"
         result="composite1"
         k2="1"
         k1="0"
         operator="arithmetic"
         id="feComposite1519"
         in2="fbSourceGraphic"
         k3="0"
         k4="0" />
      <feColorMatrix
         result="colormatrix1"
         type="saturate"
         values="1"
         in="composite1"
         id="feColorMatrix1521" />
      <feFlood
         result="flood1"
         flood-color="rgb(204,90,32)"
         flood-opacity="1"
         id="feFlood1523" />
      <feBlend
         result="blend1"
         mode="normal"
         in="flood1"
         id="feBlend1525"
         in2="colormatrix1" />
      <feBlend
         result="blend2"
         mode="screen"
         id="feBlend1527"
         in2="blend1" />
      <feColorMatrix
         result="colormatrix2"
         type="saturate"
         values="1"
         in="blend2"
         id="feColorMatrix1529" />
      <feComposite
         result="composite2"
         operator="in"
         in="colormatrix2"
         id="feComposite1531"
         in2="fbSourceGraphic" />
    </filter>
  </defs>
  <metadata
     id="metadata2413">
    <rdf:RDF>
      <cc:Work
         rdf:about="">
        <dc:format>image/svg+xml</dc:format>
        <dc:type
           rdf:resource="http://purl.org/dc/dcmitype/StillImage" />
        <dc:title></dc:title>
      </cc:Work>
    </rdf:RDF>
  </metadata>
  <g
     style="display:none"
     id="layer2"
     transform="translate(0,928)">
    <rect
       style="opacity:0.9;fill:url(#ButtonShadow);fill-opacity:1;fill-rule:nonzero;stroke:none;filter:url(#filter3174)"
       id="rect3745"
       y="7"
       x="5"
       ry="6"
       rx="6"
       height="85"
       width="86" />
  </g>
  <g
     style="filter:url(#filter1515)"
     id="layer6"
     transform="matrix(12.904215,0,0,12.904215,-105.8174,-97.692449)">
    <path
       style="fill:url(#radialGradient3952);fill-opacity:1;fill-rule:nonzero;stroke:none;stroke-width:25;marker-mid:none"
       id="path3113"
       d="M 60.536206,30.845276 C 54.178127,31.299454 43.00202,42.005302 44.57353,41.951066 57.572144,41.502475 65.691389,42.243076 75.833608,45.360811 77.33535,45.82245 74.213083,31.890296 60.536206,30.845276 Z"
       inkscape:connector-curvature="0" />
    <path
       style="fill:url(#radialGradient4086-3);fill-opacity:1;fill-rule:nonzero;stroke:#000000;stroke-width:0;stroke-linecap:butt;stroke-linejoin:round;stroke-miterlimit:4;stroke-dasharray:none;stroke-dashoffset:1;stroke-opacity:1;marker-mid:none"
       id="path3115"
       d="M 41.200312,22.040509 C 37.585605,27.239019 37.131765,47.583642 38.06486,46.330525 45.755334,36.002446 64.187983,23.247562 75.181061,18.11146 88.769604,11.76272 49.247209,12.537309 41.200312,22.040509 Z"
       inkscape:connector-curvature="0" />
    <path
       style="opacity:0.8;fill:#ffffff;fill-opacity:1;fill-rule:nonzero;stroke:none;stroke-width:25;marker-mid:none"
       id="path3117"
       d="M 24.832315,44.169493 C 26.915281,50.134336 40.245061,58.064077 39.786842,56.5748 35.996721,44.256337 34.625488,36.29867 35.052287,25.792807 c 0.0632,-1.555585 -12.727456,5.024216 -10.219972,18.376686 z"
       inkscape:connector-curvature="0" />
    <path
       style="opacity:0.8;fill:#ffffff;fill-opacity:1;fill-rule:nonzero;stroke:none;stroke-width:25;marker-mid:none"
       id="path3119"
       d="M 26.573155,63.751865 C 32.476724,66.132864 47.286223,61.435497 45.853018,60.794971 33.998325,55.496897 27.05028,51.272387 19.351979,44.029509 18.212113,42.95707 14.778564,56.81725 26.573155,63.751865 Z"
       inkscape:connector-curvature="0" />
    <path
       style="fill:url(#radialGradient4081-6);fill-opacity:1;fill-rule:nonzero;stroke:none;stroke-width:25;marker-mid:none"
       id="path3121"
       d="m 43.653123,74.956708 c 5.64438,-2.933087 11.565102,-17.169999 10.146567,-16.498223 -11.733345,5.55657 -19.474491,8.091666 -30.029835,9.248674 -1.562909,0.171315 6.925084,11.705564 19.883268,7.249549 z"
       inkscape:connector-curvature="0" />
    <path
       style="fill:url(#radialGradient4078-3);fill-opacity:1;fill-rule:nonzero;stroke:none;stroke-width:25;marker-mid:none"
       id="path3123"
       d="M 63.558847,68.909596 C 64.937662,62.747713 57.772406,49.082953 57.375449,50.589371 54.092057,63.04963 51.053193,70.540655 45.135075,79.271052 44.258792,80.563748 58.63589,81.586157 63.558847,68.909596 Z"
       inkscape:connector-curvature="0" />
    <path
       style="fill:url(#radialGradient4075-0);fill-opacity:1;fill-rule:nonzero;stroke:none;stroke-width:25;marker-mid:none"
       id="path3125"
       d="m 71.395264,49.518589 c -3.835113,-5.041323 -18.982225,-8.527235 -18.083541,-7.249704 7.433416,10.567027 11.210432,17.721309 14.068248,27.847811 0.423153,1.499413 10.549504,-8.656598 4.015293,-20.598107 z"
       inkscape:connector-curvature="0" />
    <path
       style="opacity:0.3;fill:#ffffff;fill-opacity:1;fill-rule:nonzero;stroke:none;stroke-width:25;marker-mid:none"
       id="path4148"
       d="m 77.8125,16.34375 c -0.339431,0.516146 -1.169503,1.101223 -2.625,1.78125 -10.993078,5.1361 -29.434526,17.89067 -37.125,28.21875 -0.219471,0.294743 -0.362435,-0.631275 -0.40625,-2.25 0.0084,2.197914 0.147184,3.597918 0.40625,3.25 7.690474,-10.32808 26.131922,-23.08265 37.125,-28.21875 2.509471,-1.172457 3.208502,-2.101275 2.625,-2.78125 z m -28.59375,25.5 c -1.366744,0.01456 -2.798387,0.04502 -4.28125,0.09375 -0.504979,0.624863 -0.674424,1.010334 -0.375,1 3.338376,-0.115209 6.342553,-0.158262 9.15625,-0.09375 -0.136697,-0.195595 -0.267001,-0.364549 -0.40625,-0.5625 -0.112336,-0.15969 0.03934,-0.26415 0.375,-0.28125 0.881114,-0.04489 3.117124,0.37167 5.75,1.15625 5.640484,0.470235 10.716861,1.469825 16.40625,3.21875 0.299004,0.09192 0.396632,-0.415029 0.28125,-1.25 -0.05438,0.187509 -0.140462,0.293279 -0.28125,0.25 -8.874442,-2.728014 -16.220154,-3.642076 -26.625,-3.53125 z M 53.6875,43 c -0.335662,0.0171 -0.487336,0.12156 -0.375,0.28125 C 60.745916,53.84828 64.517184,60.9985 67.375,71.125 67.698983,72.273009 73.690645,66.585885 73.5625,58.5 73.215504,66.051582 67.685533,71.22535 67.375,70.125 64.584754,60.237931 60.902579,53.162918 53.8125,43 c -0.03619,3.75e-4 -0.09247,-0.0017 -0.125,0 z m 0.1875,16.4375 c -0.811352,3.174371 -5.598175,13.130179 -10.21875,15.53125 -10.700763,3.679745 -18.321874,-3.524597 -19.78125,-6.25 -0.03159,0.0035 -0.0621,-0.0035 -0.09375,0 -1.562909,0.17132 6.916816,11.70602 19.875,7.25 5.467993,-2.84143 11.187041,-16.30416 10.25,-16.53125 -0.0091,-0.0021 -0.02319,-0.0017 -0.03125,0 z m 9.84375,8.3125 c -0.02522,0.408056 -0.07546,0.795203 -0.15625,1.15625 -4.293108,11.054706 -15.772983,11.68517 -18.0625,10.8125 -0.0032,0.0048 -0.02804,-0.0048 -0.03125,0 -0.124342,0.186206 -0.216797,0.37522 -0.34375,0.5625 -0.876283,1.2927 13.514543,2.30156 18.4375,-10.375 0.143845,-0.642841 0.180955,-1.375679 0.15625,-2.15625 z"
       inkscape:connector-curvature="0" />
    <path
       style="opacity:0.4;fill:#000000;fill-opacity:1;fill-rule:nonzero;stroke:none;stroke-width:25;marker-mid:none"
       id="path4157"
       d="m 69.59375,14 c -9.3899,0.107682 -23.87987,2.6857 -28.40625,8.03125 -2.398206,3.448993 -3.369513,13.472293 -3.5,19.53125 0.219791,-6.11789 1.240808,-15.282181 3.5,-18.53125 C 45.71388,17.6857 60.20385,15.107682 69.59375,15 73.814189,14.9516 77.013674,15.41285 77.8125,16.34375 78.859476,14.751694 75.108967,13.936753 69.59375,14 Z m -9.0625,16.84375 C 54.173171,31.29793 42.99099,41.99174 44.5625,41.9375 c 0.130806,-0.0045 0.245171,0.0043 0.375,0 C 47.082877,39.282804 55.384592,32.211394 60.53125,31.84375 71.484995,32.680702 75.660879,41.766343 76.125,45.125 76.650671,43.312416 72.92592,31.790799 60.53125,30.84375 Z m -6.8125,12 c 0.03584,0.05128 0.05809,0.10513 0.09375,0.15625 2.577546,-0.02671 14.28449,3.181168 17.59375,7.53125 1.531356,2.798609 2.117025,5.493689 2.15625,7.96875 0.125844,-2.738706 -0.417204,-5.79058 -2.15625,-8.96875 -2.097327,-2.756975 -7.580624,-5.067367 -11.96875,-6.375 -1.832164,-0.152744 -3.722477,-0.26673 -5.71875,-0.3125 z m 3.8125,7.625 c -0.07395,-0.0188 -0.13144,0.0309 -0.15625,0.125 -3.283392,12.46026 -6.331882,19.9571 -12.25,28.6875 -0.109535,0.161587 0.0245,0.310957 0.34375,0.4375 0.0032,-0.0048 0.02804,0.0048 0.03125,0 5.665833,-8.488115 8.663863,-15.938943 11.875,-28.125 0.02481,-0.0941 0.0823,-0.1438 0.15625,-0.125 0.970578,0.247249 5.848778,9.7569 6.1875,16 0.204624,-6.16573 -5.162813,-16.738967 -6.1875,-17 z m -3.625,7.96875 c -0.03023,-0.007 -0.04942,0.01035 -0.09375,0.03125 -11.733345,5.55657 -19.475906,8.09299 -30.03125,9.25 -0.272271,0.02984 -0.214118,0.425052 0.09375,1 10.506944,-1.161802 18.239332,-3.710089 29.9375,-9.25 0.03103,-0.01463 0.0437,-0.02725 0.0625,-0.03125 0.148803,-0.582183 0.176471,-0.964806 0.03125,-1 z"
       inkscape:connector-curvature="0" />
    <path
       style="opacity:0.1;fill:#012d5b;fill-opacity:1;fill-rule:nonzero;stroke:none;stroke-width:25;marker-mid:none"
       id="path3757"
       d="m 69.59375,14 c -9.3899,0.10768 -23.87987,2.6857 -28.40625,8.03125 -3.614707,5.19851 -4.058095,25.56562 -3.125,24.3125 C 45.752974,36.01567 64.194422,23.2611 75.1875,18.125 81.132488,15.34743 76.897005,13.91625 69.59375,14 Z m 0,3 c 0.474183,-0.005 0.77609,0.0526 1.21875,0.0625 -9.477794,4.94007 -21.571679,13.42713 -29.96875,22.0625 0.01765,-0.73281 -0.0076,-1.40401 0.0625,-2.28125 0.215323,-2.69604 0.562334,-5.58242 1.0625,-8.03125 0.476011,-2.33056 1.324746,-4.40941 1.6875,-4.96875 1.43489,-1.55344 5.70311,-3.6577 10.625,-4.875 C 59.36892,17.71045 65.161449,17.05083 69.59375,17 Z m -9.0625,13.84375 C 54.173171,31.29793 42.99099,41.99174 44.5625,41.9375 57.561114,41.48891 65.701531,42.25727 75.84375,45.375 77.345492,45.83664 74.208127,31.88877 60.53125,30.84375 Z m 0.0625,3.0625 c 5.646605,0.53644 8.849452,3.47257 10.75,6.40625 0.244606,0.37757 0.317096,0.69648 0.46875,1.03125 C 65.329981,39.75893 58.877005,39.0545 51.375,39 c 0.02562,-0.0209 0.03606,-0.0413 0.0625,-0.0625 1.575119,-1.26398 3.417298,-2.54954 5.125,-3.5 1.643943,-0.91497 3.248224,-1.44297 4.03125,-1.53125 z M 53.6875,42 c -0.335662,0.0171 -0.487336,0.12156 -0.375,0.28125 C 60.745916,52.84828 64.517184,59.9985 67.375,70.125 67.798153,71.62441 77.940461,61.47276 71.40625,49.53125 68.050526,45.12009 56.037137,41.8803 53.6875,42 Z m 5.75,4.375 c 0.569188,0.1742 1.086234,0.28218 1.6875,0.5 1.700446,0.61602 3.444691,1.42328 4.875,2.25 1.430309,0.82672 2.590505,1.73152 2.96875,2.21875 2.524096,4.91688 1.757387,9.11574 0.3125,12.25 -0.212603,0.46118 -0.485607,0.71787 -0.71875,1.0625 C 66.387879,58.39982 63.462811,52.64176 59.4375,46.375 Z m -1.90625,4.09375 c -0.07395,-0.0188 -0.13144,0.0309 -0.15625,0.125 -3.283392,12.46026 -6.331882,19.9571 -12.25,28.6875 -0.876283,1.2927 13.514543,2.30156 18.4375,-10.375 1.292639,-5.77676 -4.922018,-18.15493 -6.03125,-18.4375 z m 0.71875,7.4375 c 0.123729,0.28034 0.249519,0.49674 0.375,0.8125 0.692546,1.74273 1.287856,3.70996 1.65625,5.4375 0.359702,1.68678 0.484816,3.14801 0.375,3.84375 -2.118471,5.26351 -5.876244,7.46603 -9.28125,8.4375 -0.489905,0.13977 -0.870114,0.10801 -1.28125,0.15625 3.389542,-5.69008 5.951958,-11.59056 8.15625,-18.6875 z m -4.34375,0.53125 c -0.03023,-0.007 -0.04942,0.0103 -0.09375,0.0312 -11.733345,5.55657 -19.475906,8.09299 -30.03125,9.25 -1.562909,0.17132 6.916816,11.70602 19.875,7.25 5.467993,-2.84143 11.187041,-16.30416 10.25,-16.53125 z M 48.75,63.84375 c -0.07503,0.15241 -0.131285,0.27322 -0.21875,0.4375 -0.92502,1.73743 -2.094803,3.58002 -3.25,5.0625 -1.115208,1.43116 -2.313224,2.52627 -2.9375,2.875 -5.379217,1.73017 -9.527277,0.27174 -12.4375,-1.65625 -0.369771,-0.24497 -0.549562,-0.50541 -0.8125,-0.75 6.563285,-1.11447 12.777022,-3.05521 19.65625,-5.96875 z"
       inkscape:connector-curvature="0" />
    <path
       style="opacity:0.15;fill:#012d5b;fill-opacity:1;fill-rule:nonzero;stroke:none;stroke-width:25;marker-mid:none"
       id="path3760"
       d="m 69.59375,14 c -9.3899,0.10768 -23.87987,2.6857 -28.40625,8.03125 -3.614707,5.19851 -4.058095,25.56562 -3.125,24.3125 C 45.752974,36.01567 64.194422,23.2611 75.1875,18.125 81.132488,15.34743 76.897005,13.91625 69.59375,14 Z m 0,2.03125 c 1.753472,-0.0201 3.326335,0.0687 4.53125,0.21875 0.0814,0.0101 0.07682,0.0194 0.15625,0.0312 -10.12369,4.73454 -25.459396,15.25154 -34.5,25.1875 0.02407,-1.47395 0.0098,-2.85328 0.15625,-4.6875 0.217767,-2.72665 0.582071,-5.65105 1.09375,-8.15625 0.496367,-2.43022 1.270569,-4.52233 1.8125,-5.34375 0.0028,-0.004 -0.0028,-0.027 0,-0.0312 1.707548,-1.92557 6.12936,-3.96002 11.21875,-5.21875 5.176009,-1.28015 11.01323,-1.94819 15.53125,-2 z m -9.0625,14.8125 C 54.173171,31.29793 42.99099,41.99174 44.5625,41.9375 57.561114,41.48891 65.701531,42.25727 75.84375,45.375 77.345492,45.83664 74.208127,31.88877 60.53125,30.84375 Z m 0.03125,2.0625 c 6.041187,0.52713 9.564037,3.74194 11.59375,6.875 0.698728,1.07855 0.957574,1.95325 1.28125,2.84375 C 65.64643,40.52073 58.342708,39.78194 49,39.875 c 0.627476,-0.57443 1.061966,-1.06015 1.84375,-1.6875 1.609842,-1.29184 3.475459,-2.60609 5.25,-3.59375 1.749085,-0.97349 3.425881,-1.58682 4.46875,-1.6875 z M 53.6875,42 c -0.335662,0.0171 -0.487336,0.12156 -0.375,0.28125 C 60.745916,52.84828 64.517184,59.9985 67.375,70.125 67.798153,71.62441 77.940461,61.47276 71.40625,49.53125 68.050526,45.12009 56.037137,41.8803 53.6875,42 Z m 3.65625,2.71875 c 1.264321,0.32804 2.644853,0.71379 4.125,1.25 3.518078,1.27449 7.145306,3.35827 8.25,4.78125 0.0034,0.004 0.02789,-0.004 0.03125,0 2.771503,5.26364 1.954331,9.89189 0.40625,13.25 -0.552163,1.19776 -1.184283,1.92533 -1.78125,2.6875 C 65.914918,59.01068 62.550962,52.5017 57.34375,44.71875 Z m 0.1875,5.75 c -0.07395,-0.0188 -0.13144,0.0309 -0.15625,0.125 -3.283392,12.46026 -6.331882,19.9571 -12.25,28.6875 -0.876283,1.2927 13.514543,2.30156 18.4375,-10.375 1.292639,-5.77676 -4.922018,-18.15493 -6.03125,-18.4375 z M 58.125,55.3125 c 0.474301,0.9699 0.930257,1.86471 1.40625,3.0625 1.428498,3.59468 2.415545,7.9889 2.0625,9.90625 -2.228166,5.60438 -6.345888,8.06012 -9.96875,9.09375 -1.285246,0.36669 -2.24572,0.35822 -3.21875,0.40625 4.280299,-6.81407 7.12868,-13.53183 9.71875,-22.46875 z m -4.21875,3.125 c -0.03023,-0.007 -0.04942,0.0103 -0.09375,0.0312 -11.733345,5.55657 -19.475906,8.09299 -30.03125,9.25 -1.562909,0.17132 6.916816,11.70602 19.875,7.25 5.467993,-2.84143 11.187041,-16.30416 10.25,-16.53125 z m -3.3125,3.65625 c -0.400478,0.88841 -0.679705,1.64378 -1.21875,2.65625 -0.9518,1.78773 -2.147262,3.65203 -3.34375,5.1875 -1.173594,1.50609 -2.371177,2.6791 -3.25,3.15625 C 37.042933,74.9886 32.48531,73.43555 29.375,71.375 28.294504,70.65918 27.742012,69.94771 27.09375,69.25 c 7.987762,-1.16093 14.975612,-3.36564 23.5,-7.15625 z"
       inkscape:connector-curvature="0" />
    <path
       style="opacity:0.3;fill:#012d5b;fill-opacity:1;fill-rule:nonzero;stroke:none;stroke-width:25;marker-mid:none"
       id="path2969"
       d="m 69.59375,14 c -9.3899,0.10768 -23.87987,2.6857 -28.40625,8.03125 -3.614707,5.19851 -4.058095,25.56562 -3.125,24.3125 C 45.752974,36.01567 64.194422,23.2611 75.1875,18.125 81.132488,15.34743 76.897005,13.91625 69.59375,14 Z m 0,1 c 1.791912,-0.0206 3.388812,0.0609 4.65625,0.21875 1.267438,0.15785 2.243198,0.44043 2.625,0.65625 -0.158961,0.19598 -0.792707,0.72129 -2.125,1.34375 -10.598335,4.95167 -27.57053,16.59188 -36.0625,26.84375 -0.0037,-0.1202 -0.0289,-0.15261 -0.03125,-0.28125 -0.0323,-1.76712 0.02937,-4.3312 0.25,-7.09375 0.220634,-2.76255 0.601783,-5.71956 1.125,-8.28125 0.513225,-2.51276 1.218073,-4.64186 1.9375,-5.71875 1.973165,-2.33026 6.57367,-4.35283 11.84375,-5.65625 C 59.08258,15.72783 64.984756,15.05285 69.59375,15 Z m -9.0625,15.84375 C 54.173171,31.29793 42.99099,41.99174 44.5625,41.9375 57.561114,41.48891 65.701531,42.25727 75.84375,45.375 77.345492,45.83664 74.208127,31.88877 60.53125,30.84375 Z m 0,1 c 6.465695,0.51602 10.329102,4.02401 12.5,7.375 1.08919,1.68127 1.734602,3.34235 2,4.46875 0.05026,0.21332 0.03884,0.26717 0.0625,0.4375 -9.262185,-2.73284 -17.244415,-3.51686 -28.78125,-3.21875 0.879933,-0.94447 2.239848,-2.2191 3.875,-3.53125 3.30391,-2.65126 7.676492,-5.31072 10.34375,-5.53125 z M 53.6875,42 c -0.335662,0.0171 -0.487336,0.12156 -0.375,0.28125 C 60.745916,52.84828 64.517184,59.9985 67.375,70.125 67.798153,71.62441 77.940461,61.47276 71.40625,49.53125 68.050526,45.12009 56.037137,41.8803 53.6875,42 Z m 1.4375,1.21875 c 0.546183,0.0773 0.830206,0.0626 1.625,0.25 1.46785,0.34609 3.243224,0.87218 5.0625,1.53125 3.62853,1.3145 7.341023,3.28905 8.75,5.125 0.0039,0.005 0.02739,-0.005 0.03125,0 3.019071,5.62105 2.159767,10.71212 0.5,14.3125 -0.836405,1.81434 -1.905163,3.26297 -2.71875,4.09375 -0.168803,0.17237 -0.233758,0.19477 -0.375,0.3125 -2.705279,-9.17802 -6.375058,-16.21037 -12.875,-25.625 z m 2.40625,7.25 c -0.07395,-0.0188 -0.13144,0.0309 -0.15625,0.125 -3.283392,12.46026 -6.331882,19.9571 -12.25,28.6875 -0.876283,1.2927 13.514543,2.30156 18.4375,-10.375 1.292639,-5.77676 -4.922018,-18.15493 -6.03125,-18.4375 z m 0.34375,2.0625 c 0.131427,0.21582 0.228849,0.36248 0.375,0.625 0.692175,1.24332 1.500515,2.95774 2.25,4.84375 1.482708,3.73109 2.590811,8.17033 2.09375,10.59375 -2.346438,5.97277 -6.822406,8.67851 -10.6875,9.78125 C 49.966132,78.92853 48.169318,79.07027 47,79 46.762508,78.9857 46.71163,78.935 46.53125,78.9063 51.816594,70.90603 54.867874,63.55722 57.875,52.5313 Z m -3.96875,5.90625 c -0.03023,-0.007 -0.04942,0.0103 -0.09375,0.0312 -11.733345,5.55657 -19.475906,8.09299 -30.03125,9.25 -1.562909,0.17132 6.916816,11.70602 19.875,7.25 5.467993,-2.84143 11.187041,-16.30416 10.25,-16.53125 z M 52.625,60.09375 c -0.03922,0.11448 -0.04847,0.15753 -0.09375,0.28125 -0.468337,1.27974 -1.272419,3.03885 -2.25,4.875 -1.955163,3.6723 -4.808427,7.62494 -7.09375,8.8125 -6.088209,2.03429 -11.055201,0.38683 -14.375,-1.8125 -1.67473,-1.10949 -2.897581,-2.3852 -3.59375,-3.3125 -0.132976,-0.17712 -0.159423,-0.22731 -0.25,-0.375 9.590663,-1.16311 17.20573,-3.62746 27.65625,-8.46875 z"
       inkscape:connector-curvature="0" />
  </g>
</svg>
